<svg width="133" height="113" viewBox="0 0 133 113" fill="none" xmlns="http://www.w3.org/2000/svg">
<path d="M0 113L30 87V34H133V87L111.5 113H0Z" fill="#0564B9"/>
<path d="M38 96L45 90H54.5L48.5 96H38Z" fill="white"/>
<path d="M52.5 96L59.5 90H69L63 96H52.5Z" fill="white"/>
<path d="M67 96L74 90H83.5L77.5 96H67Z" fill="white"/>
<path d="M81 96L88 90H97.5L91.5 96H81Z" fill="white"/>
<path d="M95.5 96L102.5 90H112L106 96H95.5Z" fill="white"/>
<path d="M109.5 96L116.5 90H126L120 96H109.5Z" fill="white"/>
<path d="M28.5 106L35.5 100H45L39 106H28.5Z" fill="white"/>
<path d="M43 106L50 100H59.5L53.5 106H43Z" fill="white"/>
<path d="M57.5 106L64.5 100H74L68 106H57.5Z" fill="white"/>
<path d="M71.5 106L78.5 100H88L82 106H71.5Z" fill="white"/>
<path d="M86 106L93 100H102.5L96.5 106H86Z" fill="white"/>
<path d="M100 106L107 100H116.5L110.5 106H100Z" fill="white"/>
<path d="M13.5 106L20.5 100H30L24 106H13.5Z" fill="white"/>
<path d="M24 96L31 90H40.5L34.5 96H24Z" fill="white"/>
<path d="M34.5 83.5V39H127.5V83.5H34.5Z" fill="#FFFF00"/>
<path d="M78.9897 82L78 1H126V82H112.639H78.9897Z" fill="#FFFF00"/>
<path d="M83 17V8H92.5V17H83Z" fill="#FF0000"/>
<path d="M97.5 17V8H107V17H97.5Z" fill="#FF0000"/>
<path d="M112.5 17V8H121.5V17H112.5Z" fill="#FF0000"/>
<path d="M83 29.5V20.5H92.5V29.5H83Z" fill="#FF0000"/>
<path d="M97.5 29.5V20.5H107V29.5H97.5Z" fill="#FF0000"/>
<path d="M112.5 29.5V20.5H121.5V29.5H112.5Z" fill="#FF0000"/>
<path d="M83 42V33H92.5V42H83Z" fill="#FF0000"/>
<path d="M97.5 42V33H107V42H97.5Z" fill="#FF0000"/>
<path d="M112.5 42V33H121.5V42H112.5Z" fill="#FF0000"/>
<path d="M83 54.5V45.5H92.5V54.5H83Z" fill="#FF0000"/>
<path d="M97.5 54.5V45.5H107V54.5H97.5Z" fill="#FF0000"/>
<path d="M112.5 54.5V45.5H121.5V54.5H112.5Z" fill="#FF0000"/>
<path d="M83 67.5V58.5H92.5V67.5H83Z" fill="#FF0000"/>
<path d="M97.5 67.5V58.5H107V67.5H97.5Z" fill="#FF0000"/>
<path d="M112.5 67.5V58.5H121.5V67.5H112.5Z" fill="#FF0000"/>
<path d="M54.381 73.19V81H52.874V77.667H49.332V81H47.814V73.19H49.332V76.347H52.874V73.19H54.381ZM61.8513 74.521H59.3543V81H57.8473V74.521H55.3503V73.19H61.8513V74.521ZM69.1898 81V75.874L67.1878 79.691H66.3408L64.3388 75.874V81H62.8208V73.19H64.4488L66.7588 77.634L69.0908 73.19H70.7078V81H69.1898ZM72.3384 81V73.19H73.8564V79.669H77.8384V81H72.3384ZM83.6018 81.11C83.1398 81.11 82.7218 81.033 82.3478 80.879C81.9738 80.7177 81.6548 80.5013 81.3908 80.23C81.1268 79.9513 80.9215 79.636 80.7748 79.284C80.6355 78.9247 80.5658 78.547 80.5658 78.151C80.5658 77.601 80.6868 77.0987 80.9288 76.644C81.1781 76.1893 81.5301 75.8263 81.9848 75.555C82.4468 75.2763 82.9895 75.137 83.6128 75.137C84.2435 75.137 84.7825 75.2763 85.2298 75.555C85.6771 75.8263 86.0181 76.1893 86.2528 76.644C86.4948 77.0913 86.6158 77.5753 86.6158 78.096C86.6158 78.184 86.6121 78.2757 86.6048 78.371C86.5975 78.459 86.5901 78.5323 86.5828 78.591H82.1278C82.1571 78.8843 82.2415 79.141 82.3808 79.361C82.5275 79.581 82.7108 79.7497 82.9308 79.867C83.1581 79.977 83.4001 80.032 83.6568 80.032C83.9501 80.032 84.2251 79.9623 84.4818 79.823C84.7458 79.6763 84.9255 79.4857 85.0208 79.251L86.2858 79.603C86.1465 79.8963 85.9448 80.1567 85.6808 80.384C85.4241 80.6113 85.1198 80.791 84.7678 80.923C84.4158 81.0477 84.0271 81.11 83.6018 81.11ZM82.0948 77.656H85.1088C85.0795 77.3627 84.9951 77.1097 84.8558 76.897C84.7238 76.677 84.5478 76.5083 84.3278 76.391C84.1078 76.2663 83.8621 76.204 83.5908 76.204C83.3268 76.204 83.0848 76.2663 82.8648 76.391C82.6521 76.5083 82.4761 76.677 82.3368 76.897C82.2048 77.1097 82.1241 77.3627 82.0948 77.656ZM90.9141 80.703C90.7894 80.7543 90.6391 80.813 90.4631 80.879C90.2871 80.945 90.0964 80.9963 89.8911 81.033C89.6931 81.077 89.4914 81.099 89.2861 81.099C89.0147 81.099 88.7654 81.0513 88.5381 80.956C88.3107 80.8607 88.1274 80.7103 87.9881 80.505C87.8561 80.2923 87.7901 80.0173 87.7901 79.68V76.369H87.0311V75.236H87.7901V73.366H89.2641V75.236H90.4741V76.369H89.2641V79.185C89.2714 79.383 89.3264 79.526 89.4291 79.614C89.5317 79.702 89.6601 79.746 89.8141 79.746C89.9681 79.746 90.1184 79.7203 90.2651 79.669C90.4117 79.6177 90.5291 79.5737 90.6171 79.537L90.9141 80.703ZM93.9943 77.04C93.9943 76.5633 94.0787 76.0977 94.2473 75.643C94.4233 75.181 94.6763 74.763 95.0063 74.389C95.3363 74.0077 95.7397 73.707 96.2163 73.487C96.693 73.2597 97.2357 73.146 97.8443 73.146C98.563 73.146 99.1827 73.3037 99.7033 73.619C100.231 73.9343 100.624 74.345 100.88 74.851L99.7143 75.654C99.5823 75.3607 99.41 75.1297 99.1973 74.961C98.9847 74.785 98.7573 74.664 98.5153 74.598C98.2733 74.5247 98.035 74.488 97.8003 74.488C97.419 74.488 97.0853 74.565 96.7993 74.719C96.5207 74.873 96.286 75.0747 96.0953 75.324C95.9047 75.5733 95.7617 75.852 95.6663 76.16C95.5783 76.468 95.5343 76.776 95.5343 77.084C95.5343 77.4287 95.5893 77.7623 95.6993 78.085C95.8093 78.4003 95.9633 78.6827 96.1613 78.932C96.3667 79.174 96.6087 79.3683 96.8873 79.515C97.1733 79.6543 97.485 79.724 97.8223 79.724C98.0643 79.724 98.31 79.6837 98.5593 79.603C98.8087 79.5223 99.0397 79.394 99.2523 79.218C99.465 79.042 99.63 78.8147 99.7473 78.536L100.99 79.251C100.836 79.6397 100.583 79.9697 100.231 80.241C99.8867 80.5123 99.498 80.7177 99.0653 80.857C98.6327 80.9963 98.2037 81.066 97.7783 81.066C97.221 81.066 96.7113 80.9523 96.2493 80.725C95.7873 80.4903 95.3877 80.1823 95.0503 79.801C94.7203 79.4123 94.46 78.9797 94.2693 78.503C94.086 78.019 93.9943 77.5313 93.9943 77.04ZM106.661 75.236C106.61 75.1847 106.515 75.115 106.375 75.027C106.243 74.939 106.078 74.8547 105.88 74.774C105.69 74.6933 105.481 74.6237 105.253 74.565C105.026 74.499 104.795 74.466 104.56 74.466C104.15 74.466 103.838 74.543 103.625 74.697C103.42 74.851 103.317 75.0673 103.317 75.346C103.317 75.5587 103.383 75.7273 103.515 75.852C103.647 75.9767 103.845 76.083 104.109 76.171C104.373 76.259 104.703 76.3543 105.099 76.457C105.613 76.5817 106.056 76.7357 106.43 76.919C106.812 77.095 107.101 77.3297 107.299 77.623C107.505 77.909 107.607 78.2903 107.607 78.767C107.607 79.185 107.53 79.5443 107.376 79.845C107.222 80.1383 107.01 80.3767 106.738 80.56C106.467 80.7433 106.159 80.879 105.814 80.967C105.47 81.0477 105.103 81.088 104.714 81.088C104.326 81.088 103.937 81.0477 103.548 80.967C103.16 80.8863 102.786 80.7727 102.426 80.626C102.067 80.472 101.737 80.2887 101.436 80.076L102.107 78.767C102.173 78.833 102.291 78.921 102.459 79.031C102.628 79.1337 102.833 79.24 103.075 79.35C103.317 79.4527 103.581 79.5407 103.867 79.614C104.153 79.6873 104.443 79.724 104.736 79.724C105.147 79.724 105.459 79.6543 105.671 79.515C105.884 79.3757 105.99 79.1777 105.99 78.921C105.99 78.6863 105.906 78.503 105.737 78.371C105.569 78.239 105.334 78.1253 105.033 78.03C104.733 77.9273 104.377 77.8173 103.966 77.7C103.475 77.5607 103.064 77.4067 102.734 77.238C102.404 77.062 102.159 76.842 101.997 76.578C101.836 76.314 101.755 75.984 101.755 75.588C101.755 75.0527 101.88 74.6053 102.129 74.246C102.386 73.8793 102.731 73.6043 103.163 73.421C103.596 73.2303 104.076 73.135 104.604 73.135C104.971 73.135 105.316 73.1753 105.638 73.256C105.968 73.3367 106.276 73.443 106.562 73.575C106.848 73.707 107.105 73.85 107.332 74.004L106.661 75.236ZM113.407 75.236C113.356 75.1847 113.261 75.115 113.121 75.027C112.989 74.939 112.824 74.8547 112.626 74.774C112.436 74.6933 112.227 74.6237 111.999 74.565C111.772 74.499 111.541 74.466 111.306 74.466C110.896 74.466 110.584 74.543 110.371 74.697C110.166 74.851 110.063 75.0673 110.063 75.346C110.063 75.5587 110.129 75.7273 110.261 75.852C110.393 75.9767 110.591 76.083 110.855 76.171C111.119 76.259 111.449 76.3543 111.845 76.457C112.359 76.5817 112.802 76.7357 113.176 76.919C113.558 77.095 113.847 77.3297 114.045 77.623C114.251 77.909 114.353 78.2903 114.353 78.767C114.353 79.185 114.276 79.5443 114.122 79.845C113.968 80.1383 113.756 80.3767 113.484 80.56C113.213 80.7433 112.905 80.879 112.56 80.967C112.216 81.0477 111.849 81.088 111.46 81.088C111.072 81.088 110.683 81.0477 110.294 80.967C109.906 80.8863 109.532 80.7727 109.172 80.626C108.813 80.472 108.483 80.2887 108.182 80.076L108.853 78.767C108.919 78.833 109.037 78.921 109.205 79.031C109.374 79.1337 109.579 79.24 109.821 79.35C110.063 79.4527 110.327 79.5407 110.613 79.614C110.899 79.6873 111.189 79.724 111.482 79.724C111.893 79.724 112.205 79.6543 112.417 79.515C112.63 79.3757 112.736 79.1777 112.736 78.921C112.736 78.6863 112.652 78.503 112.483 78.371C112.315 78.239 112.08 78.1253 111.779 78.03C111.479 77.9273 111.123 77.8173 110.712 77.7C110.221 77.5607 109.81 77.4067 109.48 77.238C109.15 77.062 108.905 76.842 108.743 76.578C108.582 76.314 108.501 75.984 108.501 75.588C108.501 75.0527 108.626 74.6053 108.875 74.246C109.132 73.8793 109.477 73.6043 109.909 73.421C110.342 73.2303 110.822 73.135 111.35 73.135C111.717 73.135 112.062 73.1753 112.384 73.256C112.714 73.3367 113.022 73.443 113.308 73.575C113.594 73.707 113.851 73.85 114.078 74.004L113.407 75.236Z" fill="#FF0000"/>
<path d="M43.7928 49.4464C49.4678 56.7071 61.3042 62.3568 66.4868 64.1656C67.9242 66.5731 71.7195 69.7884 75.611 64.2569C74.4138 64.6205 74.0343 64.2782 73.1962 63.922C71.8705 63.2648 71.181 62.3428 70.1417 61.9052C68.7534 61.7126 67.89 62.2027 67.3283 62.8184C66.4905 59.351 51.2889 52.459 43.7928 49.4464Z" fill="#FF0404"/>
</svg>
